PathFileType	4	(X/Y/Z)	C:\Git\research_data\torsion_deformities_healthy_kinematics\simulations\P01\post\Stand01\marker_experimental_HJC.trc
DataRate	CameraRate	NumFrames	NumMarkers	Units	OrigDataRate	OrigDataStartFrame	OrigNumFrames
150	150	3	184	mm	150	1.450000e+02	6
Frame#	Time	LFHD			LBHD			RFHD			RBHD			C7			T10			CLAV			STRN			RBAK			LSHO			LUPA			LELB			LFRA			LWRB			LWRA			LFIN			RSHO			RUPA			RELB			RFRA			RWRB			RWRA			RFIN			SACR			LASI			RASI			LT1			LT2			LT3			LS1			LS2			LS3			LHEE			LTOE			RT1			RT2			RT3			RS1			RS2			RS3			RHEE			RTOE			PELO			PELA			PELL			PELP			SACO			SACA			SACL			SACP			LFEO			LFEA			LFEL			LFEP			RFEO			RFEA			RFEL			RFEP			LTIO			LTIA			LTIL			LTIP			RTIO			RTIA			RTIL			RTIP			LFOO			LFOA			LFOL			LFOP			RFOO			RFOA			RFOL			RFOP			LTOO			LTOA			LTOL			LTOP			RTOO			RTOA			RTOL			RTOP			HEDO			HEDA			HEDL			HEDP			LCLO			LCLA			LCLL			LCLP			RCLO			RCLA			RCLL			RCLP			TRXO			TRXA			TRXL			TRXP			LHUO			LHUA			LHUL			LHUP			LRAO			LRAA			LRAL			LRAP			LHNO			LHNA			LHNL			LHNP			RHUO			RHUA			RHUL			RHUP			RRAO			RRAA			RRAL			RRAP			RHNO			RHNA			RHNL			RHNP			LPelvisAngles			RPelvisAngles			LFootProgressAngles			RFootProgressAngles			LHipAngles			RHipAngles			LKneeAngles			RKneeAngles			LAnkleAngles			RAnkleAngles			LFFootAngles			RFFootAngles			LAbsAnkleAngle			RAbsAnkleAngle			RNeckAngles			LNeckAngles			RSpineAngles			LSpineAngles			LShoulderAngles			LElbowAngles			LWristAngles			RShoulderAngles			RElbowAngles			RWristAngles			RThoraxAngles			LThoraxAngles			RHeadAngles			LHeadAngles			LHipPower			LKneePower			LAnklePower			RHipPower			RKneePower			RAnklePower			LWaistPower			RWaistPower			LNeckPower			RNeckPower			LShoulderPower			RShoulderPower			LElbowPower			RElbowPower			LWristPower			RWristPower			F_ForcePlate1			F_ForcePlate2			F_ForcePlate3			LGRF			RGRF			LHipForce			RHipForce			LKneeForce			RKneeForce			LAnkleForce			RAnkleForce			LWaistForce			RWaistForce			LNeckForce			RNeckForce			LShoulderForce			RShoulderForce			RHJC		
		X1	Y1	Z1	X2	Y2	Z2	X3	Y3	Z3	X4	Y4	Z4	X5	Y5	Z5	X6	Y6	Z6	X7	Y7	Z7	X8	Y8	Z8	X9	Y9	Z9	X10	Y10	Z10	X11	Y11	Z11	X12	Y12	Z12	X13	Y13	Z13	X14	Y14	Z14	X15	Y15	Z15	X16	Y16	Z16	X17	Y17	Z17	X18	Y18	Z18	X19	Y19	Z19	X20	Y20	Z20	X21	Y21	Z21	X22	Y22	Z22	X23	Y23	Z23	X24	Y24	Z24	X25	Y25	Z25	X26	Y26	Z26	X27	Y27	Z27	X28	Y28	Z28	X29	Y29	Z29	X30	Y30	Z30	X31	Y31	Z31	X32	Y32	Z32	X33	Y33	Z33	X34	Y34	Z34	X35	Y35	Z35	X36	Y36	Z36	X37	Y37	Z37	X38	Y38	Z38	X39	Y39	Z39	X40	Y40	Z40	X41	Y41	Z41	X42	Y42	Z42	X43	Y43	Z43	X44	Y44	Z44	X45	Y45	Z45	X46	Y46	Z46	X47	Y47	Z47	X48	Y48	Z48	X49	Y49	Z49	X50	Y50	Z50	X51	Y51	Z51	X52	Y52	Z52	X53	Y53	Z53	X54	Y54	Z54	X55	Y55	Z55	X56	Y56	Z56	X57	Y57	Z57	X58	Y58	Z58	X59	Y59	Z59	X60	Y60	Z60	X61	Y61	Z61	X62	Y62	Z62	X63	Y63	Z63	X64	Y64	Z64	X65	Y65	Z65	X66	Y66	Z66	X67	Y67	Z67	X68	Y68	Z68	X69	Y69	Z69	X70	Y70	Z70	X71	Y71	Z71	X72	Y72	Z72	X73	Y73	Z73	X74	Y74	Z74	X75	Y75	Z75	X76	Y76	Z76	X77	Y77	Z77	X78	Y78	Z78	X79	Y79	Z79	X80	Y80	Z80	X81	Y81	Z81	X82	Y82	Z82	X83	Y83	Z83	X84	Y84	Z84	X85	Y85	Z85	X86	Y86	Z86	X87	Y87	Z87	X88	Y88	Z88	X89	Y89	Z89	X90	Y90	Z90	X91	Y91	Z91	X92	Y92	Z92	X93	Y93	Z93	X94	Y94	Z94	X95	Y95	Z95	X96	Y96	Z96	X97	Y97	Z97	X98	Y98	Z98	X99	Y99	Z99	X100	Y100	Z100	X101	Y101	Z101	X102	Y102	Z102	X103	Y103	Z103	X104	Y104	Z104	X105	Y105	Z105	X106	Y106	Z106	X107	Y107	Z107	X108	Y108	Z108	X109	Y109	Z109	X110	Y110	Z110	X111	Y111	Z111	X112	Y112	Z112	X113	Y113	Z113	X114	Y114	Z114	X115	Y115	Z115	X116	Y116	Z116	X117	Y117	Z117	X118	Y118	Z118	X119	Y119	Z119	X120	Y120	Z120	X121	Y121	Z121	X122	Y122	Z122	X123	Y123	Z123	X124	Y124	Z124	X125	Y125	Z125	X126	Y126	Z126	X127	Y127	Z127	X128	Y128	Z128	X129	Y129	Z129	X130	Y130	Z130	X131	Y131	Z131	X132	Y132	Z132	X133	Y133	Z133	X134	Y134	Z134	X135	Y135	Z135	X136	Y136	Z136	X137	Y137	Z137	X138	Y138	Z138	X139	Y139	Z139	X140	Y140	Z140	X141	Y141	Z141	X142	Y142	Z142	X143	Y143	Z143	X144	Y144	Z144	X145	Y145	Z145	X146	Y146	Z146	X147	Y147	Z147	X148	Y148	Z148	X149	Y149	Z149	X150	Y150	Z150	X151	Y151	Z151	X152	Y152	Z152	X153	Y153	Z153	X154	Y154	Z154	X155	Y155	Z155	X156	Y156	Z156	X157	Y157	Z157	X158	Y158	Z158	X159	Y159	Z159	X160	Y160	Z160	X161	Y161	Z161	X162	Y162	Z162	X163	Y163	Z163	X164	Y164	Z164	X165	Y165	Z165	X166	Y166	Z166	X167	Y167	Z167	X168	Y168	Z168	X169	Y169	Z169	X170	Y170	Z170	X171	Y171	Z171	X172	Y172	Z172	X173	Y173	Z173	X174	Y174	Z174	X175	Y175	Z175	X176	Y176	Z176	X177	Y177	Z177	X178	Y178	Z178	X179	Y179	Z179	X180	Y180	Z180	X181	Y181	Z181	X182	Y182	Z182	X183	Y183	Z183	X184	Y184	Z184	

145	0.960000	-334.873932	1545.825317	1298.415405	-333.753693	1521.736816	1159.133789	-461.631042	1542.796753	1306.845825	-484.723389	1518.010132	1181.053589	-401.173523	1406.173706	1149.277588	-393.935211	1225.573975	1086.953613	-406.457794	1339.045898	1266.696777	-407.309174	1302.733521	1287.492798	-508.612366	1266.974976	1077.758789	-254.496292	1380.229126	1181.791016	-145.920486	1190.048462	1151.885254	-88.153229	1114.642700	1172.126099	-41.447483	1071.558105	1192.935181	49.218479	941.325867	1268.939331	23.617914	949.863953	1333.361084	79.247963	901.049255	1350.418945	-554.945435	1367.398804	1176.444336	-623.018616	1281.185547	1158.028076	-694.398010	1091.945435	1148.252686	-817.515991	951.763733	1204.971924	-842.824097	909.674805	1223.293579	-842.210083	935.225098	1288.981079	-900.184814	882.861389	1298.653564	-393.940521	971.708679	1083.338623	-253.944366	934.200623	1269.581787	-540.115540	934.059814	1261.348999	-206.119308	643.500610	1239.064209	-191.048111	553.456909	1157.179932	-235.037003	566.728455	1293.057495	-202.866013	258.264526	1179.312866	-188.189224	179.841217	1087.073730	-227.540009	178.390945	1223.709106	-275.669067	39.443249	1091.283936	-226.223312	38.869419	1252.080688	-583.652161	660.835083	1198.796143	-555.443054	589.725220	1101.127197	-582.547424	571.999573	1241.353027	-576.975159	267.653992	1154.144653	-555.145569	203.289215	1053.969360	-571.247925	182.331284	1193.733643	-495.219635	41.382645	1085.262329	-539.834106	39.906139	1246.345825	-395.076752	848.690796	1200.076904	-395.500916	845.636841	1214.872925	-382.487061	848.697021	1200.439087	-395.869415	972.041748	1225.514526	-393.495270	959.580200	1142.165161	-393.671997	958.307678	1148.330200	-387.200439	959.583313	1142.346191	-393.891602	1021.255676	1154.884155	-281.376251	469.597656	1219.100098	-274.537231	472.212952	1256.688843	-244.040009	474.273193	1211.981689	-332.130432	848.784729	1201.951904	-498.643585	473.726166	1207.108521	-505.705322	475.370789	1244.122070	-461.816895	469.906647	1214.304321	-458.023132	848.596924	1198.201782	-266.441132	45.474907	1149.657227	-248.382050	40.634190	1183.105957	-231.544464	49.688778	1131.426270	-280.193329	436.003693	1213.599609	-505.530487	50.479927	1142.318237	-521.208618	45.254616	1178.119385	-469.355621	47.532112	1157.729858	-499.189148	440.201752	1201.976685	-226.962646	49.204033	1252.801025	-227.914673	62.511688	1253.728516	-214.218506	50.386135	1248.921631	-266.384277	55.280876	1125.148926	-539.475098	50.069141	1247.302246	-539.009766	63.244453	1248.542236	-526.698181	49.298710	1250.693359	-505.012878	60.841702	1119.902954	-214.020081	47.555183	1294.816284	-214.320709	51.757603	1295.109131	-209.995621	47.928463	1293.591187	-226.469177	49.473938	1254.505005	-550.799072	46.872326	1289.242554	-550.652161	51.032955	1289.634155	-546.764282	46.629051	1290.313477	-539.916077	50.274281	1249.011353	-410.731171	1443.405518	1128.705200	-392.380432	1484.225464	1350.092163	-185.825287	1449.737671	1108.895264	-420.517975	1665.461426	1088.573120	-258.026154	1333.426147	1179.336426	-178.229279	1319.648193	1327.294312	-245.358582	1501.387085	1188.145142	-406.083252	1340.370850	1259.833496	-547.080566	1321.131470	1173.898560	-630.633789	1299.114136	1315.917114	-519.262634	1157.484741	1164.894165	-406.083374	1340.370850	1259.833618	-406.083282	1340.370850	1259.833496	-415.042084	1308.674316	1424.015381	-573.226562	1337.308716	1250.121948	-401.242706	1175.973389	1228.359497	-120.146133	1096.102539	1170.816162	-210.872955	1052.564819	915.318420	-339.608582	964.999634	1271.087280	-258.026154	1333.426147	1179.336426	32.073944	940.200012	1300.138794	36.551342	792.387329	1116.675781	-156.252274	827.697388	1386.183960	-109.490692	1085.189331	1179.868774	98.990906	835.902527	1391.068481	211.602661	935.644104	1422.600098	179.394608	783.009277	1271.228516	32.073914	940.200012	1300.138794	-662.297913	1076.216675	1157.802002	-502.782288	1015.011597	947.264282	-848.837830	1175.151367	987.707397	-547.080566	1321.131470	1173.898560	-837.589172	917.801208	1257.899414	-779.134216	751.488770	1097.058105	-1001.765747	1004.875122	1108.196533	-674.568298	1065.127563	1164.808838	-932.609436	824.371155	1346.897095	-1057.748535	918.046448	1311.630127	-901.145874	914.783447	1475.404907	-837.589111	917.801147	1257.899414	-0.360523	1.608210	-11.652322	0.360523	-1.608210	-11.652322	-4.272260	-17.143480	-2.725611	-2.086029	-15.085130	-4.833189	7.659143	-12.042341	-14.025800	6.169098	-9.197306	-13.196771	-3.241050	-16.394472	-12.709579	-3.182785	-11.647701	-10.885775	0.654358	10.633224	-5.785945	0.320838	8.242114	-3.532259	-0.000000	0.000000	-0.000000	-0.000000	-0.000000	-0.000000	0.000000	0.000000	-9.396698	0.000000	0.000000	-8.850276	1.016850	-8.313913	21.061337	-1.016850	8.313913	21.061337	-1.337545	1.436867	0.743822	1.337545	-1.436867	0.743822	-29.099779	-29.600176	-6.102374	0.000000	0.000000	-35.156990	11.072143	123.277771	-1.557517	-26.631100	-40.795368	-7.787824	0.000000	-0.000000	-34.433113	8.812436	115.941833	-6.580151	1.656507	-3.068090	-10.838163	-1.656507	3.068090	-10.838163	2.483421	4.664634	-10.244468	-2.483421	-4.664634	-10.244468	NaN	NaN	NaN	NaN	NaN	NaN	NaN	NaN	NaN	NaN	NaN	NaN	NaN	NaN	NaN	NaN	NaN	NaN	NaN	NaN	NaN	NaN	NaN	NaN	NaN	NaN	NaN	NaN	NaN	NaN	NaN	NaN	NaN	NaN	NaN	NaN	NaN	NaN	NaN	NaN	NaN	NaN	NaN	NaN	NaN	NaN	NaN	NaN	-398.021027	1.304700	259.089996	-231.415009	1.697000	-251.317001	-396.987000	4.582600	-949.962036	0.000000	0.000000	0.000000	0.000000	0.000000	0.000000	NaN	NaN	NaN	NaN	NaN	NaN	NaN	NaN	NaN	NaN	NaN	NaN	NaN	NaN	NaN	NaN	NaN	NaN	NaN	NaN	NaN	NaN	NaN	NaN	NaN	NaN	NaN	NaN	NaN	NaN	NaN	NaN	NaN	-496.623858	850.309940	1189.600372	
146	0.966667	-334.888733	1545.832520	1298.395020	-333.771088	1521.740967	1159.113525	-461.646271	1542.794922	1306.833618	-484.743408	1518.003174	1181.043457	-401.189575	1406.170776	1149.265381	-393.947815	1225.564087	1086.958618	-406.458954	1339.056274	1266.687012	-407.306458	1302.745605	1287.490356	-508.625275	1266.959595	1077.762573	-254.505554	1380.239868	1181.771118	-145.917252	1190.068359	1151.865479	-88.143257	1114.666992	1172.106934	-41.429153	1071.586914	1192.911133	49.255119	941.366150	1268.914429	23.668421	949.913025	1333.342041	79.295868	901.096802	1350.399414	-554.955261	1367.390869	1176.447021	-623.029053	1281.172607	1158.050049	-694.400513	1091.922241	1148.300903	-817.531433	951.772766	1205.004395	-842.830505	909.684326	1223.334717	-842.216858	935.237671	1289.016846	-900.179260	882.845459	1298.684326	-393.944092	971.706360	1083.358154	-253.933090	934.206543	1269.594727	-540.101196	934.057861	1261.383789	-206.107437	643.499634	1239.072021	-191.043991	553.457336	1157.188110	-235.021347	566.727295	1293.070312	-202.863113	258.263550	1179.317993	-188.189819	179.841736	1087.077148	-227.535690	178.389053	1223.713379	-275.671631	39.443668	1091.286133	-226.221603	38.868938	1252.081665	-583.646973	660.831238	1198.830933	-555.448914	589.724243	1101.153931	-582.539490	571.997009	1241.383667	-576.972168	267.653992	1154.158936	-555.146118	203.294067	1053.980103	-571.247009	182.329376	1193.744263	-495.219818	41.382820	1085.265137	-539.832275	39.907444	1246.347778	-395.066620	848.691040	1200.102905	-395.489655	845.637451	1214.899048	-382.476898	848.697571	1200.464233	-395.860504	972.042664	1225.537231	-393.492523	959.578857	1142.187988	-393.668793	958.306580	1148.353027	-387.197662	959.582153	1142.368652	-393.889618	1021.254761	1154.905029	-281.367828	469.596924	1219.118774	-274.525146	472.212372	1256.707153	-244.031982	474.272064	1211.996704	-332.120056	848.786743	1201.973267	-498.639984	473.720703	1207.123047	-505.697723	475.363403	1244.137939	-461.812134	469.900055	1214.314697	-458.013123	848.595520	1198.232788	-266.439819	45.474606	1149.660767	-248.379547	40.632523	1183.108887	-231.543533	49.688725	1131.428589	-280.185394	436.003052	1213.617188	-505.534180	50.478333	1142.321167	-521.211914	45.252293	1178.122070	-469.359406	47.529530	1157.732178	-499.186066	440.196442	1201.990234	-226.960907	49.203548	1252.802002	-227.912903	62.511208	1253.729614	-214.216797	50.385651	1248.922485	-266.383942	55.281261	1125.150391	-539.472961	50.070454	1247.304077	-539.007202	63.245773	1248.543701	-526.695923	49.299767	1250.694580	-505.016327	60.839474	1119.902832	-214.017853	47.554546	1294.817139	-214.318436	51.756962	1295.109985	-209.993378	47.927788	1293.591919	-226.467712	49.473305	1254.506226	-550.795044	46.874592	1289.244995	-550.647949	51.035221	1289.636475	-546.760193	46.631210	1290.315674	-539.914124	50.275433	1249.013062	-410.745636	1443.402954	1128.691895	-392.388519	1484.229736	1350.077026	-185.841110	1449.752319	1108.872070	-420.551605	1665.457031	1088.554810	-258.032532	1333.436401	1179.321777	-178.229370	1319.679932	1327.276367	-245.375366	1501.397339	1188.111450	-406.085205	1340.380493	1259.823486	-547.088135	1321.123657	1173.905884	-630.625000	1299.118652	1315.933594	-519.262634	1157.479370	1164.917969	-406.085144	1340.380493	1259.823486	-406.085175	1340.380493	1259.823608	-415.026550	1308.703003	1424.008057	-573.227356	1337.308472	1250.128418	-401.239014	1175.981445	1228.368652	-120.134842	1096.124146	1170.803345	-210.894348	1052.556152	915.323364	-339.571411	965.012817	1271.117310	-258.032532	1333.436401	1179.321777	32.117432	940.244446	1300.118652	36.580448	792.414917	1116.666992	-156.188370	827.733521	1386.201416	-109.477219	1085.212524	1179.855347	99.040344	835.953613	1391.056763	211.668762	935.691895	1422.554688	179.421692	783.031982	1271.210449	32.117401	940.244385	1300.118652	-662.301941	1076.196777	1157.860840	-502.725220	1014.920105	947.382202	-848.800964	1175.074585	987.678223	-547.088135	1321.123657	1173.905884	-837.596313	917.811951	1257.938477	-779.086487	751.475464	1097.175781	-1001.717285	1004.825439	1108.176025	-674.572571	1065.109863	1164.866333	-932.583862	824.336426	1346.914429	-1057.751709	917.968384	1311.656738	-901.160706	914.737854	1475.433716	-837.596313	917.811951	1257.938477	-0.361144	1.603637	-11.650774	0.361144	-1.603637	-11.650774	-4.272091	-17.144152	-2.725836	-2.087749	-15.082567	-4.831824	7.657051	-12.043522	-14.024446	6.171766	-9.195355	-13.192293	-3.240138	-16.390808	-12.711579	-3.184062	-11.653358	-10.884529	0.654692	10.634283	-5.787941	0.321208	8.244070	-3.535004	0.000000	-0.000000	-0.000000	0.000000	0.000000	0.000000	0.000000	0.000000	-9.398651	0.000000	0.000000	-8.852661	1.014313	-8.311142	21.056345	-1.014313	8.311142	21.056345	-1.339002	1.435324	0.748848	1.339002	-1.435324	0.748848	-29.101036	-29.601969	-6.099486	0.000000	0.000000	-35.156891	11.079127	123.269180	-1.558640	-26.632275	-40.820057	-7.790400	0.000000	-0.000000	-34.427608	8.830275	115.959183	-6.555360	1.658402	-3.062149	-10.831656	-1.658402	3.062149	-10.831656	2.488282	4.666224	-10.245797	-2.488282	-4.666224	-10.245797	NaN	NaN	NaN	NaN	NaN	NaN	NaN	NaN	NaN	NaN	NaN	NaN	NaN	NaN	NaN	NaN	NaN	NaN	NaN	NaN	NaN	NaN	NaN	NaN	NaN	NaN	NaN	NaN	NaN	NaN	NaN	NaN	NaN	NaN	NaN	NaN	NaN	NaN	NaN	NaN	NaN	NaN	NaN	NaN	NaN	NaN	NaN	NaN	-398.021027	1.304700	259.089996	-231.415009	1.697000	-251.317001	-396.987000	4.582600	-949.962036	0.000000	0.000000	0.000000	0.000000	0.000000	0.000000	NaN	NaN	NaN	NaN	NaN	NaN	NaN	NaN	NaN	NaN	NaN	NaN	NaN	NaN	NaN	NaN	NaN	NaN	NaN	NaN	NaN	NaN	NaN	NaN	NaN	NaN	NaN	NaN	NaN	NaN	NaN	NaN	NaN	-496.613340	850.308411	1189.633637	
147	0.973333	-334.903778	1545.839966	1298.373901	-333.788605	1521.745239	1159.092773	-461.661743	1542.793213	1306.820679	-484.763580	1517.996094	1181.032471	-401.205750	1406.167847	1149.252441	-393.960510	1225.554077	1086.963135	-406.460205	1339.066895	1266.676758	-407.303833	1302.757690	1287.487305	-508.638245	1266.944214	1077.765625	-254.514908	1380.250732	1181.750732	-145.913940	1190.088501	1151.845093	-88.133179	1114.691528	1172.087280	-41.410652	1071.616089	1192.886719	49.292042	941.406921	1268.889038	23.719286	949.962585	1333.322754	79.343964	901.144775	1350.379639	-554.965210	1367.382812	1176.448975	-623.039551	1281.159668	1158.071411	-694.403076	1091.898804	1148.348755	-817.547607	951.782532	1205.035522	-842.837463	909.694458	1223.374512	-842.224487	935.250977	1289.051147	-900.174377	882.829712	1298.713379	-393.947693	971.703918	1083.377197	-253.921661	934.212646	1269.607178	-540.086609	934.055908	1261.418457	-206.095337	643.498596	1239.079468	-191.039795	553.457703	1157.196045	-235.005447	566.726257	1293.082764	-202.860138	258.262543	1179.323120	-188.190414	179.842194	1087.080566	-227.531311	178.387161	1223.717529	-275.674194	39.444073	1091.288452	-226.219879	38.868454	1252.082764	-583.641663	660.827393	1198.865723	-555.454773	589.723267	1101.180664	-582.531372	571.994446	1241.414429	-576.969238	267.653961	1154.173218	-555.146729	203.298904	1053.990845	-571.246033	182.327484	1193.754761	-495.220032	41.382961	1085.267944	-539.830322	39.908787	1246.349609	-395.056335	848.691284	1200.128784	-395.478119	845.638123	1214.925049	-382.466583	848.698181	1200.489136	-395.851685	972.043640	1225.559570	-393.489716	959.577515	1142.210571	-393.665466	958.305359	1148.375732	-387.194855	959.580933	1142.390747	-393.887238	1021.253723	1154.925903	-281.359344	469.596191	1219.137207	-274.513031	472.211823	1256.725098	-244.023895	474.270935	1212.011597	-332.109650	848.788574	1201.994141	-498.636200	473.715271	1207.137695	-505.689880	475.356079	1244.153687	-461.807251	469.893494	1214.325073	-458.002899	848.593811	1198.263550	-266.438538	45.474327	1149.664062	-248.377121	40.630882	1183.111572	-231.542694	49.688671	1131.430786	-280.177521	436.002502	1213.634399	-505.537689	50.476791	1142.323975	-521.215027	45.249989	1178.124756	-469.362976	47.526993	1157.734375	-499.182831	440.191345	1202.003906	-226.959152	49.203064	1252.803223	-227.911057	62.510727	1253.730835	-214.215073	50.385094	1248.923462	-266.384094	55.280891	1125.152100	-539.470764	50.071804	1247.305664	-539.004578	63.247128	1248.545166	-526.693542	49.300800	1250.695557	-505.020203	60.838497	1119.902710	-214.015610	47.553902	1294.818115	-214.316208	51.756321	1295.110962	-209.991150	47.927155	1293.592896	-226.465775	49.472771	1254.507324	-550.790894	46.876896	1289.247192	-550.643677	51.037521	1289.638550	-546.755981	46.633400	1290.317627	-539.911987	50.276608	1249.014526	-410.760101	1443.400391	1128.677979	-392.397034	1484.234375	1350.061279	-185.856934	1449.767090	1108.848633	-420.585388	1665.452637	1088.535645	-258.039001	1333.446777	1179.306763	-178.229599	1319.712036	1327.258057	-245.392349	1501.407715	1188.077026	-406.087158	1340.390381	1259.812988	-547.095764	1321.115723	1173.912598	-630.616577	1299.123413	1315.949341	-519.262451	1157.473877	1164.941650	-406.087158	1340.390259	1259.813232	-406.087158	1340.390381	1259.813110	-415.010986	1308.732178	1424.000366	-573.228271	1337.308472	1250.134521	-401.235443	1175.989624	1228.377441	-120.123421	1096.145874	1170.789917	-210.915802	1052.547363	915.327881	-339.534027	965.026001	1271.147095	-258.039001	1333.446777	1179.306763	32.161243	940.289368	1300.098022	36.609856	792.442932	1116.657837	-156.124054	827.770020	1386.218628	-109.463470	1085.235962	1179.841553	99.089813	836.005066	1391.044922	211.735138	935.739746	1422.509155	179.448776	783.054626	1271.192383	32.161217	940.289368	1300.098022	-662.306152	1076.176636	1157.919800	-502.665955	1014.826477	947.502258	-848.762451	1174.996582	987.646240	-547.095764	1321.115723	1173.912598	-837.604126	917.823303	1257.976074	-779.037598	751.462341	1097.294312	-1001.667358	1004.775146	1108.151978	-674.577026	1065.091919	1164.923706	-932.558777	824.301514	1346.929810	-1057.755859	917.889343	1311.680786	-901.177307	914.692139	1475.460815	-837.604187	917.823364	1257.976074	-0.361784	1.598987	-11.649153	0.361784	-1.598987	-11.649153	-4.271901	-17.144800	-2.726060	-2.089477	-15.080012	-4.830463	7.654905	-12.044676	-14.023032	6.174473	-9.193408	-13.187760	-3.239217	-16.387106	-12.713579	-3.185344	-11.659036	-10.883340	0.655028	10.635372	-5.789933	0.321578	8.245973	-3.537779	-0.000000	0.000000	0.000000	0.000000	-0.000000	-0.000000	0.000000	0.000000	-9.400627	0.000000	0.000000	-8.855113	1.011703	-8.308346	21.051388	-1.011703	8.308346	21.051388	-1.340443	1.433852	0.753849	1.340443	-1.433852	0.753849	-29.102337	-29.603762	-6.096554	0.000000	-0.000000	-35.156822	11.086299	123.260452	-1.559754	-26.633478	-40.845478	-7.793069	0.000000	0.000000	-34.421959	8.848532	115.976883	-6.530118	1.660302	-3.056199	-10.825098	-1.660302	3.056199	-10.825098	2.493212	4.667769	-10.247202	-2.493212	-4.667769	-10.247202	NaN	NaN	NaN	NaN	NaN	NaN	NaN	NaN	NaN	NaN	NaN	NaN	NaN	NaN	NaN	NaN	NaN	NaN	NaN	NaN	NaN	NaN	NaN	NaN	NaN	NaN	NaN	NaN	NaN	NaN	NaN	NaN	NaN	NaN	NaN	NaN	NaN	NaN	NaN	NaN	NaN	NaN	NaN	NaN	NaN	NaN	NaN	NaN	-398.021027	1.304700	259.089996	-231.415009	1.697000	-251.317001	-396.987000	4.582600	-949.962036	0.000000	0.000000	0.000000	0.000000	0.000000	0.000000	NaN	NaN	NaN	NaN	NaN	NaN	NaN	NaN	NaN	NaN	NaN	NaN	NaN	NaN	NaN	NaN	NaN	NaN	NaN	NaN	NaN	NaN	NaN	NaN	NaN	NaN	NaN	NaN	NaN	NaN	NaN	NaN	NaN	-496.602635	850.306849	1189.666811	
